HIERARCHY
ROOT joint_Root
{
	OFFSET 0.0 0.0 0.0
	CHANNELS 6 Xposition Yposition Zposition Zrotation Xrotation Yrotation 
	JOINT Hips
	{
		OFFSET 4.5925 91.4895 -427.239
		CHANNELS 6 Xposition Yposition Zposition Zrotation Xrotation Yrotation 
		JOINT Spine
		{
			OFFSET 15.7357 0.0 0.0
			CHANNELS 6 Xposition Yposition Zposition Zrotation Xrotation Yrotation 
			JOINT Chest
			{
				OFFSET 8.98455 -0.406207 0.0
				CHANNELS 6 Xposition Yposition Zposition Zrotation Xrotation Yrotation 
				JOINT Neck
				{
					OFFSET 16.3773 0.0 0.0
					CHANNELS 6 Xposition Yposition Zposition Zrotation Xrotation Yrotation 
					JOINT Head
					{
						OFFSET 6.45672 0.0 0.0
						CHANNELS 6 Xposition Yposition Zposition Zrotation Xrotation Yrotation 
						End Site
						{
							OFFSET 0.0 0.0 0.0
						}
					}
				}
				JOINT Shoulder_L
				{
					OFFSET 12.9942 -0.242716 4.98039
					CHANNELS 6 Xposition Yposition Zposition Zrotation Xrotation Yrotation 
					JOINT UpperArm_L
					{
						OFFSET 5.34809 0.0 0.0
						CHANNELS 6 Xposition Yposition Zposition Zrotation Xrotation Yrotation 
						JOINT LowerArm_L
						{
							OFFSET 24.3286 1.87007e-05 0.0
							CHANNELS 6 Xposition Yposition Zposition Zrotation Xrotation Yrotation 
							JOINT Hand_L
							{
								OFFSET 22.2916 0.0 0.0
								CHANNELS 6 Xposition Yposition Zposition Zrotation Xrotation Yrotation 
								End Site
								{
									OFFSET 0.0 0.0 0.0
								}
							}
						}
					}
				}
				JOINT Shoulder_R
				{
					OFFSET 12.9945 -0.242716 -4.98039
					CHANNELS 6 Xposition Yposition Zposition Zrotation Xrotation Yrotation 
					JOINT UpperArm_R
					{
						OFFSET -5.34813 0.0 0.0
						CHANNELS 6 Xposition Yposition Zposition Zrotation Xrotation Yrotation 
						JOINT LowerArm_R
						{
							OFFSET -24.3289 0.000322201 0.0
							CHANNELS 6 Xposition Yposition Zposition Zrotation Xrotation Yrotation 
							JOINT Hand_R
							{
								OFFSET -22.2915 -0.000108084 0.0
								CHANNELS 6 Xposition Yposition Zposition Zrotation Xrotation Yrotation 
								End Site
								{
									OFFSET 0.0 0.0 0.0
								}
							}
						}
					}
				}
			}
		}
		JOINT UpperLeg_L
		{
			OFFSET -2.19248 -6.46944 0.0
			CHANNELS 6 Xposition Yposition Zposition Zrotation Xrotation Yrotation 
			JOINT LowerLeg_L
			{
				OFFSET 39.0811 0.0 -1.23785e-05
				CHANNELS 6 Xposition Yposition Zposition Zrotation Xrotation Yrotation 
				JOINT Foot_L
				{
					OFFSET 40.9854 0.0 -1.26872e-05
					CHANNELS 6 Xposition Yposition Zposition Zrotation Xrotation Yrotation 
					JOINT Toes_L
					{
						OFFSET 11.7543 0.0 0.0
						CHANNELS 6 Xposition Yposition Zposition Zrotation Xrotation Yrotation 
						End Site
						{
							OFFSET 0.0 0.0 0.0
						}
					}
				}
			}
		}
		JOINT UpperLeg_R
		{
			OFFSET -2.19251 6.46944 0.0
			CHANNELS 6 Xposition Yposition Zposition Zrotation Xrotation Yrotation 
			JOINT LowerLeg_R
			{
				OFFSET -39.0811 -0.00228153 -0.0401928
				CHANNELS 6 Xposition Yposition Zposition Zrotation Xrotation Yrotation 
				JOINT Foot_R
				{
					OFFSET -40.9854 0.0 0.0
					CHANNELS 6 Xposition Yposition Zposition Zrotation Xrotation Yrotation 
					JOINT Toes_R
					{
						OFFSET -11.7543 0.0 0.0
						CHANNELS 6 Xposition Yposition Zposition Zrotation Xrotation Yrotation 
						End Site
						{
							OFFSET 0.0 0.0 0.0
						}
					}
				}
			}
		}
	}
}
MOTION
Frames:	6
Frame Time:	0.0333333
0.000000 0.000000 0.000000 0.000000 0.000000 -0.000000 -0.318239 90.180900 -2.658210 88.519500 -3.344590 12.036600 15.735700 0.000005 -0.000001 87.048700 76.160300 -88.762500 8.984550 -0.406207 -0.000000 19.860100 -1.573590 -3.162560 16.377300 -0.000001 -0.000001 10.457300 -3.898810 2.744650 6.456720 -0.000001 -0.000000 -9.442080 -1.767980 -4.695330 12.994200 -0.242716 4.980390 -91.120400 5.257140 -77.951300 5.348090 -0.000007 -0.000001 -49.205100 40.064800 -32.754700 24.328600 0.000019 0.000005 6.509600 17.240300 -21.056400 22.291600 -0.000001 0.000005 10.831000 5.237950 1.748880 12.994500 -0.242716 -4.980390 89.875600 0.500775 -76.050400 -5.348130 -0.000001 -0.000004 -74.470200 -14.036900 -77.914800 -24.328900 0.000322 -0.000009 15.247400 -6.073620 -111.214000 -22.291500 -0.000108 -0.000004 23.299800 5.244800 1.569730 -2.192480 -6.469440 -0.000000 -173.440000 -11.598400 -1.878340 39.081100 -0.000007 -0.000012 -0.197201 0.279632 35.192500 40.985400 -0.000006 -0.000013 -0.054443 4.017130 -70.938200 11.754300 -0.000000 0.000003 -0.000132 -0.001300 -16.627100 -2.192510 6.469440 -0.000001 175.095000 19.352300 179.503000 -39.081100 -0.002282 -0.040193 -0.045943 0.072950 34.016600 -40.985400 0.000008 0.000006 6.505580 12.869000 -71.824100 -11.754300 -0.000006 -0.000006 -0.002354 -0.033058 -17.917400
0.000000 0.000000 0.000000 0.000000 0.000000 -0.000000 -0.316556 90.183500 -2.639270 88.513000 -3.370060 11.977000 15.735700 0.000005 -0.000001 87.028300 76.143400 -88.741400 8.984550 -0.406207 -0.000000 19.893100 -1.585270 -3.158720 16.377300 -0.000001 -0.000001 10.356500 -3.904100 2.752290 6.456720 -0.000001 -0.000000 -9.442840 -1.757980 -4.698120 12.994200 -0.242716 4.980390 -91.127000 5.294250 -77.964400 5.348090 -0.000007 -0.000001 -49.156900 39.996900 -32.736200 24.328600 0.000019 0.000005 6.538530 17.310600 -21.066600 22.291600 -0.000001 0.000005 10.854600 5.237460 1.761920 12.994500 -0.242716 -4.980390 89.870700 0.518981 -76.006000 -5.348130 -0.000001 -0.000004 -74.473900 -13.999800 -77.887500 -24.328900 0.000322 -0.000009 15.206800 -6.059540 -111.224000 -22.291500 -0.000108 -0.000004 23.331000 5.244520 1.577200 -2.192480 -6.469440 -0.000000 -173.442000 -11.644800 -1.920690 39.081100 -0.000007 -0.000012 -0.195359 0.277111 35.183500 40.985400 -0.000006 -0.000013 -0.055872 4.000510 -70.943100 11.754300 -0.000000 0.000003 -0.000131 -0.001297 -16.627000 -2.192510 6.469440 -0.000001 175.115000 19.333400 179.465000 -39.081100 -0.002282 -0.040193 -0.045839 0.072869 33.989800 -40.985400 0.000008 0.000006 6.444500 12.899300 -71.807600 -11.754300 -0.000006 -0.000006 -0.002295 -0.032350 -17.888600
0.000000 0.000000 0.000000 0.000000 0.000000 -0.000000 -0.307987 90.193500 -2.610350 88.513400 -3.448680 11.909100 15.735700 0.000005 -0.000001 86.995800 76.138600 -88.711000 8.984550 -0.406207 -0.000000 19.901800 -1.601380 -3.159800 16.377300 -0.000001 -0.000001 10.226800 -3.859810 2.729390 6.456720 -0.000001 -0.000000 -9.367020 -1.737010 -4.655130 12.994200 -0.242716 4.980390 -91.147600 5.353040 -77.881400 5.348090 -0.000007 -0.000001 -49.017300 40.050600 -32.798300 24.328600 0.000019 0.000005 6.513460 17.242800 -21.065200 22.291600 -0.000001 0.000005 10.891500 5.237570 1.759010 12.994500 -0.242716 -4.980390 89.857900 0.570114 -76.003700 -5.348130 -0.000001 -0.000004 -74.416900 -13.955900 -77.880200 -24.328900 0.000322 -0.000009 15.266100 -6.063740 -111.158000 -22.291500 -0.000108 -0.000004 23.248600 5.242920 1.619110 -2.192480 -6.469440 -0.000000 -173.448000 -11.659600 -1.926410 39.081100 -0.000007 -0.000012 -0.198999 0.282876 35.126100 40.985400 -0.000006 -0.000013 -0.068280 3.977210 -70.944100 11.754300 -0.000000 0.000003 -0.000139 -0.001365 -16.629500 -2.192510 6.469440 -0.000001 175.160000 19.285800 179.415000 -39.081100 -0.002282 -0.040193 -0.035571 0.057697 33.964000 -40.985400 0.000008 0.000006 6.637860 12.871300 -71.859800 -11.754300 -0.000006 -0.000006 -0.002417 -0.033825 -17.948600
0.000000 0.000000 0.000000 0.000000 0.000000 -0.000000 -0.303433 90.195100 -2.585320 88.516700 -3.496460 11.823800 15.735700 0.000005 -0.000001 86.980600 76.148200 -88.693700 8.984550 -0.406207 -0.000000 19.882200 -1.607190 -3.155170 16.377300 -0.000001 -0.000001 10.146200 -3.850180 2.743160 6.456720 -0.000001 -0.000000 -9.299380 -1.737090 -4.640470 12.994200 -0.242716 4.980390 -91.155300 5.387930 -77.878300 5.348090 -0.000007 -0.000001 -49.025200 40.001100 -32.758300 24.328600 0.000019 0.000005 6.547220 17.309100 -21.093900 22.291600 -0.000001 0.000005 10.886600 5.237920 1.749730 12.994500 -0.242716 -4.980390 89.847400 0.611378 -75.982100 -5.348130 -0.000001 -0.000004 -74.326100 -13.932800 -77.860700 -24.328900 0.000322 -0.000009 15.204400 -6.013270 -111.080000 -22.291500 -0.000108 -0.000004 23.309700 5.245080 1.562180 -2.192480 -6.469440 -0.000000 -173.468000 -11.703100 -1.983270 39.081100 -0.000007 -0.000012 -0.196686 0.279715 35.113900 40.985400 -0.000006 -0.000013 -0.080126 3.924970 -70.956900 11.754300 -0.000000 0.000003 -0.000146 -0.001418 -16.631500 -2.192510 6.469440 -0.000001 175.169000 19.274400 179.344000 -39.081100 -0.002282 -0.040193 -0.039360 0.063352 33.951400 -40.985400 0.000008 0.000006 6.618770 12.929000 -71.862400 -11.754300 -0.000006 -0.000006 -0.002415 -0.033794 -17.947300
0.000000 0.000000 0.000000 0.000000 0.000000 -0.000000 -0.295478 90.204600 -2.547030 88.512700 -3.547730 11.778300 15.735700 0.000005 -0.000001 86.955500 76.146300 -88.665600 8.984550 -0.406207 -0.000000 19.885200 -1.618910 -3.146760 16.377300 -0.000001 -0.000001 10.032300 -3.829750 2.724360 6.456720 -0.000001 -0.000000 -9.192410 -1.747250 -4.612850 12.994200 -0.242716 4.980390 -91.175000 5.439730 -77.791500 5.348090 -0.000007 -0.000001 -48.873600 40.075700 -32.871300 24.328600 0.000019 0.000005 6.488960 17.154900 -21.087400 22.291600 -0.000001 0.000005 10.892000 5.238470 1.735450 12.994500 -0.242716 -4.980390 89.850600 0.598599 -75.988600 -5.348130 -0.000001 -0.000004 -74.300400 -13.901200 -77.836000 -24.328900 0.000322 -0.000009 15.218500 -6.002750 -111.027000 -22.291500 -0.000108 -0.000004 23.243900 5.243750 1.597300 -2.192480 -6.469440 -0.000000 -173.476000 -11.717200 -1.967890 39.081100 -0.000007 -0.000012 -0.196038 0.279338 35.061300 40.985400 -0.000006 -0.000013 -0.083901 3.902700 -70.963600 11.754300 -0.000000 0.000003 -0.000139 -0.001362 -16.629400 -2.192510 6.469440 -0.000001 175.185000 19.273300 179.342000 -39.081100 -0.002282 -0.040193 -0.034252 0.055871 33.901200 -40.985400 0.000008 0.000006 6.649710 12.934400 -71.866300 -11.754300 -0.000006 -0.000006 -0.002366 -0.033206 -17.923400
0.000000 0.000000 0.000000 0.000000 0.000000 -0.000000 -0.291595 90.209200 -2.514530 88.535100 -3.590780 11.737600 15.735700 0.000005 -0.000001 86.958800 76.151200 -88.674900 8.984550 -0.406207 -0.000000 19.875500 -1.617400 -3.159360 16.377300 -0.000001 -0.000001 9.994110 -3.821060 2.715710 6.456720 -0.000001 -0.000000 -9.109560 -1.747460 -4.571370 12.994200 -0.242716 4.980390 -91.173400 5.433940 -77.794900 5.348090 -0.000007 -0.000001 -48.947900 39.994800 -32.835600 24.328600 0.000019 0.000005 6.489260 17.145300 -21.098700 22.291600 -0.000001 0.000005 10.914300 5.239690 1.703770 12.994500 -0.242716 -4.980390 89.850700 0.599824 -76.020900 -5.348130 -0.000001 -0.000004 -74.261000 -13.932800 -77.826200 -24.328900 0.000322 -0.000009 15.221300 -5.995120 -110.999000 -22.291500 -0.000108 -0.000004 23.235800 5.245130 1.560750 -2.192480 -6.469440 -0.000000 -173.478000 -11.810600 -1.951710 39.081100 -0.000007 -0.000012 -0.199417 0.284617 35.017400 40.985400 -0.000006 -0.000013 -0.082744 3.923700 -70.968400 11.754300 -0.000000 0.000003 -0.000127 -0.001262 -16.625700 -2.192510 6.469440 -0.000001 175.185000 19.223800 179.322000 -39.081100 -0.002282 -0.040193 -0.032988 0.054025 33.884300 -40.985400 0.000008 0.000006 6.647090 12.935000 -71.877500 -11.754300 -0.000006 -0.000006 -0.002391 -0.033504 -17.935500
